REM DIRINDEX 1\2,1\3,1\4,1\5
REM DIRNAME cjc044,folder01,folder02,folder03,folder04
TITLE ""
FILE "1800_078.mp3" MP3
  TRACK 01 AUDIO
    TITLE "2:cjc044_2013"
    INDEX 01 00:00:00
  TRACK 02 AUDIO
    TITLE "0:"
    INDEX 01 00:01:22
  TRACK 03 AUDIO
    TITLE "3:cjc044_2014"
    INDEX 01 00:02:10
  TRACK 04 AUDIO
    TITLE "0:"
    INDEX 01 00:03:17
  TRACK 05 AUDIO
    TITLE "4:cjc044_2015"
    INDEX 01 00:04:01
  TRACK 06 AUDIO
    TITLE "0:"
    INDEX 01 00:05:32
  TRACK 07 AUDIO
    TITLE "5:cjc044_2016"
    INDEX 01 00:06:10
  TRACK 08 AUDIO
    TITLE "0:"
    INDEX 01 00:09:10
  TRACK 09 AUDIO
    TITLE "2:cjc044_2017"
    INDEX 01 00:10:74
  TRACK 10 AUDIO
    TITLE "0:"
    INDEX 01 00:12:16
  TRACK 11 AUDIO
    TITLE "3:cjc044_2018"
    INDEX 01 00:13:06
  TRACK 12 AUDIO
    TITLE "0:"
    INDEX 01 00:14:09
  TRACK 13 AUDIO
    TITLE "4:cjc044_2019"
    INDEX 01 00:14:70
  TRACK 14 AUDIO
    TITLE "0:"
    INDEX 01 00:16:16
  TRACK 15 AUDIO
    TITLE "5:cjc044_2020"
    INDEX 01 00:16:65
  TRACK 16 AUDIO
    TITLE "0:"
    INDEX 01 00:19:50
  TRACK 17 AUDIO
    TITLE "2:cjc044_2021"
    INDEX 01 00:21:29
  TRACK 18 AUDIO
    TITLE "0:"
    INDEX 01 00:22:40
  TRACK 19 AUDIO
    TITLE "3:cjc044_2022"
    INDEX 01 00:23:26
  TRACK 20 AUDIO
    TITLE "0:"
    INDEX 01 00:24:16
  TRACK 21 AUDIO
    TITLE "4:cjc044_2023"
    INDEX 01 00:24:72
  TRACK 22 AUDIO
    TITLE "0:"
    INDEX 01 00:26:22
  TRACK 23 AUDIO
    TITLE "5:cjc044_2024"
    INDEX 01 00:26:64
  TRACK 24 AUDIO
    TITLE "0:"
    INDEX 01 00:30:59
  TRACK 25 AUDIO
    TITLE "2:cjc044_2025"
    INDEX 01 00:32:48
  TRACK 26 AUDIO
    TITLE "0:"
    INDEX 01 00:33:64
  TRACK 27 AUDIO
    TITLE "3:cjc044_2026"
    INDEX 01 00:34:47
  TRACK 28 AUDIO
    TITLE "0:"
    INDEX 01 00:35:53
  TRACK 29 AUDIO
    TITLE "4:cjc044_2027"
    INDEX 01 00:36:38
  TRACK 30 AUDIO
    TITLE "0:"
    INDEX 01 00:37:57
  TRACK 31 AUDIO
    TITLE "5:cjc044_2028"
    INDEX 01 00:38:30
  TRACK 32 AUDIO
    TITLE "0:"
    INDEX 01 00:41:22
  TRACK 33 AUDIO
    TITLE "2:cjc044_2029"
    INDEX 01 00:43:11
  TRACK 34 AUDIO
    TITLE "0:"
    INDEX 01 00:44:22
  TRACK 35 AUDIO
    TITLE "3:cjc044_2030"
    INDEX 01 00:45:06
  TRACK 36 AUDIO
    TITLE "0:"
    INDEX 01 00:46:09
  TRACK 37 AUDIO
    TITLE "4:cjc044_2031"
    INDEX 01 00:46:72
  TRACK 38 AUDIO
    TITLE "0:"
    INDEX 01 00:48:04
  TRACK 39 AUDIO
    TITLE "5:cjc044_2032"
    INDEX 01 00:48:57
  TRACK 40 AUDIO
    TITLE "0:"
    INDEX 01 00:51:34
  TRACK 41 AUDIO
    TITLE "2:cjc044_2033"
    INDEX 01 00:53:17
  TRACK 42 AUDIO
    TITLE "0:"
    INDEX 01 00:54:34
  TRACK 43 AUDIO
    TITLE "3:cjc044_2034"
    INDEX 01 00:55:14
  TRACK 44 AUDIO
    TITLE "0:"
    INDEX 01 00:56:27
  TRACK 45 AUDIO
    TITLE "4:cjc044_2035"
    INDEX 01 00:57:05
  TRACK 46 AUDIO
    TITLE "0:"
    INDEX 01 00:58:22
  TRACK 47 AUDIO
    TITLE "5:cjc044_2036"
    INDEX 01 00:58:66
  TRACK 48 AUDIO
    TITLE "0:"
    INDEX 01 01:02:14
  TRACK 49 AUDIO
    TITLE "2:cjc044_2037"
    INDEX 01 01:04:03
  TRACK 50 AUDIO
    TITLE "0:"
    INDEX 01 01:05:13
  TRACK 51 AUDIO
    TITLE "3:cjc044_2038"
    INDEX 01 01:05:73
  TRACK 52 AUDIO
    TITLE "0:"
    INDEX 01 01:06:71
  TRACK 53 AUDIO
    TITLE "4:cjc044_2039"
    INDEX 01 01:07:53
  TRACK 54 AUDIO
    TITLE "0:"
    INDEX 01 01:08:74
  TRACK 55 AUDIO
    TITLE "5:cjc044_2040"
    INDEX 01 01:09:44
  TRACK 56 AUDIO
    TITLE "0:"
    INDEX 01 01:12:34
  TRACK 57 AUDIO
    TITLE "2:cjc044_2041"
    INDEX 01 01:14:21
  TRACK 58 AUDIO
    TITLE "0:"
    INDEX 01 01:15:37
  TRACK 59 AUDIO
    TITLE "3:cjc044_2042"
    INDEX 01 01:16:14
  TRACK 60 AUDIO
    TITLE "0:"
    INDEX 01 01:17:20
  TRACK 61 AUDIO
    TITLE "4:cjc044_2043"
    INDEX 01 01:18:02
  TRACK 62 AUDIO
    TITLE "0:"
    INDEX 01 01:19:17
  TRACK 63 AUDIO
    TITLE "5:cjc044_2044"
    INDEX 01 01:19:66
  TRACK 64 AUDIO
    TITLE "0:"
    INDEX 01 01:23:11
  TRACK 65 AUDIO
    TITLE "2:cjc044_2045"
    INDEX 01 01:24:67
  TRACK 66 AUDIO
    TITLE "0:"
    INDEX 01 01:26:23
  TRACK 67 AUDIO
    TITLE "3:cjc044_2046"
    INDEX 01 01:27:04
  TRACK 68 AUDIO
    TITLE "0:"
    INDEX 01 01:29:07
  TRACK 69 AUDIO
    TITLE "4:cjc044_2047"
    INDEX 01 01:29:64
  TRACK 70 AUDIO
    TITLE "0:"
    INDEX 01 01:31:22
  TRACK 71 AUDIO
    TITLE "5:cjc044_2048"
    INDEX 01 01:31:71
  TRACK 72 AUDIO
    TITLE "0:"
    INDEX 01 01:34:52
